<mxfile host="Electron" agent="Mozilla/5.0 (Windows NT 10.0; Win64; x64) AppleWebKit/537.36 (KHTML, like Gecko) draw.io/24.7.8 Chrome/128.0.6613.36 Electron/32.0.1 Safari/537.36" version="24.7.8">
  <diagram name="Page-1" id="MBixMXVFNvnHRHYRDhCQ">
    <mxGraphModel dx="967" dy="723" grid="1" gridSize="10" guides="1" tooltips="1" connect="1" arrows="1" fold="1" page="1" pageScale="1" pageWidth="1700" pageHeight="1100" math="0" shadow="0">
      <root>
        <mxCell id="0" />
        <mxCell id="1" parent="0" />
        <mxCell id="lftGqDo9x2T_g4nQwYOj-1" value="Application" style="swimlane;fontStyle=0;childLayout=stackLayout;horizontal=1;startSize=26;fillColor=none;horizontalStack=0;resizeParent=1;resizeParentMax=0;resizeLast=0;collapsible=1;marginBottom=0;whiteSpace=wrap;html=1;hachureGap=4;fontFamily=Helvetica;swimlaneLine=1;rounded=1;" vertex="1" parent="1">
          <mxGeometry x="520" y="390" width="140" height="130" as="geometry" />
        </mxCell>
        <mxCell id="lftGqDo9x2T_g4nQwYOj-2" value="+ Init()" style="text;strokeColor=none;fillColor=none;align=left;verticalAlign=top;spacingLeft=4;spacingRight=4;overflow=hidden;rotatable=0;points=[[0,0.5],[1,0.5]];portConstraint=eastwest;whiteSpace=wrap;html=1;fontFamily=Helvetica;swimlaneLine=1;rounded=1;" vertex="1" parent="lftGqDo9x2T_g4nQwYOj-1">
          <mxGeometry y="26" width="140" height="26" as="geometry" />
        </mxCell>
        <mxCell id="lftGqDo9x2T_g4nQwYOj-3" value="+ Shutdown()" style="text;strokeColor=none;fillColor=none;align=left;verticalAlign=top;spacingLeft=4;spacingRight=4;overflow=hidden;rotatable=0;points=[[0,0.5],[1,0.5]];portConstraint=eastwest;whiteSpace=wrap;html=1;fontFamily=Helvetica;swimlaneLine=1;rounded=1;" vertex="1" parent="lftGqDo9x2T_g4nQwYOj-1">
          <mxGeometry y="52" width="140" height="26" as="geometry" />
        </mxCell>
        <mxCell id="lftGqDo9x2T_g4nQwYOj-6" value="+ RequestClose()" style="text;strokeColor=none;fillColor=none;align=left;verticalAlign=top;spacingLeft=4;spacingRight=4;overflow=hidden;rotatable=0;points=[[0,0.5],[1,0.5]];portConstraint=eastwest;whiteSpace=wrap;html=1;fontFamily=Helvetica;rounded=1;swimlaneLine=1;" vertex="1" parent="lftGqDo9x2T_g4nQwYOj-1">
          <mxGeometry y="78" width="140" height="26" as="geometry" />
        </mxCell>
        <mxCell id="lftGqDo9x2T_g4nQwYOj-4" value="- Run()" style="text;strokeColor=none;fillColor=none;align=left;verticalAlign=top;spacingLeft=4;spacingRight=4;overflow=hidden;rotatable=0;points=[[0,0.5],[1,0.5]];portConstraint=eastwest;whiteSpace=wrap;html=1;fontFamily=Helvetica;rounded=1;swimlaneLine=1;" vertex="1" parent="lftGqDo9x2T_g4nQwYOj-1">
          <mxGeometry y="104" width="140" height="26" as="geometry" />
        </mxCell>
        <mxCell id="lftGqDo9x2T_g4nQwYOj-15" value="" style="edgeStyle=orthogonalEdgeStyle;rounded=1;orthogonalLoop=1;jettySize=auto;html=1;" edge="1" parent="1" source="lftGqDo9x2T_g4nQwYOj-7" target="lftGqDo9x2T_g4nQwYOj-14">
          <mxGeometry relative="1" as="geometry" />
        </mxCell>
        <mxCell id="lftGqDo9x2T_g4nQwYOj-19" value="" style="edgeStyle=orthogonalEdgeStyle;rounded=1;orthogonalLoop=1;jettySize=auto;html=1;" edge="1" parent="1" source="lftGqDo9x2T_g4nQwYOj-7" target="lftGqDo9x2T_g4nQwYOj-14">
          <mxGeometry relative="1" as="geometry" />
        </mxCell>
        <mxCell id="lftGqDo9x2T_g4nQwYOj-20" value="" style="edgeStyle=orthogonalEdgeStyle;rounded=1;orthogonalLoop=1;jettySize=auto;html=1;" edge="1" parent="1" source="lftGqDo9x2T_g4nQwYOj-7" target="lftGqDo9x2T_g4nQwYOj-14">
          <mxGeometry relative="1" as="geometry" />
        </mxCell>
        <mxCell id="lftGqDo9x2T_g4nQwYOj-23" style="edgeStyle=orthogonalEdgeStyle;rounded=1;orthogonalLoop=1;jettySize=auto;html=1;exitX=0.5;exitY=1;exitDx=0;exitDy=0;entryX=0.5;entryY=0;entryDx=0;entryDy=0;" edge="1" parent="1" source="lftGqDo9x2T_g4nQwYOj-7" target="lftGqDo9x2T_g4nQwYOj-21">
          <mxGeometry relative="1" as="geometry" />
        </mxCell>
        <mxCell id="lftGqDo9x2T_g4nQwYOj-24" style="edgeStyle=orthogonalEdgeStyle;rounded=1;orthogonalLoop=1;jettySize=auto;html=1;exitX=0.5;exitY=1;exitDx=0;exitDy=0;entryX=0.5;entryY=0;entryDx=0;entryDy=0;" edge="1" parent="1" source="lftGqDo9x2T_g4nQwYOj-7" target="lftGqDo9x2T_g4nQwYOj-22">
          <mxGeometry relative="1" as="geometry" />
        </mxCell>
        <mxCell id="lftGqDo9x2T_g4nQwYOj-7" value="&lt;p style=&quot;margin:0px;margin-top:4px;text-align:center;&quot;&gt;&lt;i&gt;&amp;lt;&amp;lt;Template&amp;gt;&amp;gt;&lt;/i&gt;&lt;br&gt;&lt;b&gt;Module&lt;/b&gt;&lt;/p&gt;&lt;hr size=&quot;1&quot; style=&quot;border-style:solid;&quot;&gt;&lt;p style=&quot;margin:0px;margin-left:4px;&quot;&gt;&lt;/p&gt;&lt;p style=&quot;margin:0px;margin-left:4px;&quot;&gt;+ Init(Pointer): Void&lt;br&gt;+ Shutdown(): Void&lt;/p&gt;&lt;p style=&quot;margin:0px;margin-left:4px;&quot;&gt;+ Update(): Void&lt;/p&gt;&lt;p style=&quot;margin:0px;margin-left:4px;&quot;&gt;&lt;br&gt;&lt;/p&gt;&lt;p style=&quot;margin:0px;margin-left:4px;&quot;&gt;- DataRef: Pointer&lt;/p&gt;" style="verticalAlign=top;align=left;overflow=fill;html=1;whiteSpace=wrap;rounded=1;" vertex="1" parent="1">
          <mxGeometry x="495" y="580" width="190" height="140" as="geometry" />
        </mxCell>
        <mxCell id="lftGqDo9x2T_g4nQwYOj-14" value="&lt;p style=&quot;margin:0px;margin-top:4px;text-align:center;&quot;&gt;&lt;i&gt;&amp;lt;&amp;lt;Module&amp;gt;&amp;gt;&lt;/i&gt;&lt;br&gt;&lt;b&gt;Gear&lt;/b&gt;&lt;/p&gt;&lt;hr size=&quot;1&quot; style=&quot;border-style:solid;&quot;&gt;&lt;p style=&quot;margin:0px;margin-left:4px;&quot;&gt;&lt;/p&gt;&lt;p style=&quot;margin:0px;margin-left:4px;&quot;&gt;+ Init(): Void&lt;br&gt;+ Shutdown(): Void&lt;/p&gt;&lt;p style=&quot;margin:0px;margin-left:4px;&quot;&gt;+ Update(): Void&lt;/p&gt;" style="verticalAlign=top;align=left;overflow=fill;html=1;whiteSpace=wrap;rounded=1;" vertex="1" parent="1">
          <mxGeometry x="495" y="800" width="190" height="140" as="geometry" />
        </mxCell>
        <mxCell id="lftGqDo9x2T_g4nQwYOj-21" value="&lt;p style=&quot;margin:0px;margin-top:4px;text-align:center;&quot;&gt;&lt;i&gt;&amp;lt;&amp;lt;Module&amp;gt;&amp;gt;&lt;/i&gt;&lt;br&gt;&lt;b&gt;FuelFlow&lt;/b&gt;&lt;/p&gt;&lt;hr size=&quot;1&quot; style=&quot;border-style:solid;&quot;&gt;&lt;p style=&quot;margin:0px;margin-left:4px;&quot;&gt;&lt;/p&gt;&lt;p style=&quot;margin:0px;margin-left:4px;&quot;&gt;+ Init(): Void&lt;br&gt;+ Shutdown(): Void&lt;/p&gt;&lt;p style=&quot;margin:0px;margin-left:4px;&quot;&gt;+ Update(): Void&lt;/p&gt;" style="verticalAlign=top;align=left;overflow=fill;html=1;whiteSpace=wrap;rounded=1;" vertex="1" parent="1">
          <mxGeometry x="720" y="800" width="190" height="140" as="geometry" />
        </mxCell>
        <mxCell id="lftGqDo9x2T_g4nQwYOj-22" value="&lt;p style=&quot;margin:0px;margin-top:4px;text-align:center;&quot;&gt;&lt;i&gt;&amp;lt;&amp;lt;Module&amp;gt;&amp;gt;&lt;/i&gt;&lt;br&gt;&lt;b&gt;Speed&lt;/b&gt;&lt;/p&gt;&lt;hr size=&quot;1&quot; style=&quot;border-style:solid;&quot;&gt;&lt;p style=&quot;margin:0px;margin-left:4px;&quot;&gt;&lt;/p&gt;&lt;p style=&quot;margin:0px;margin-left:4px;&quot;&gt;+ Init(): Void&lt;br&gt;+ Shutdown(): Void&lt;/p&gt;&lt;p style=&quot;margin:0px;margin-left:4px;&quot;&gt;+ Update(): Void&lt;/p&gt;" style="verticalAlign=top;align=left;overflow=fill;html=1;whiteSpace=wrap;rounded=1;" vertex="1" parent="1">
          <mxGeometry x="270" y="800" width="190" height="140" as="geometry" />
        </mxCell>
        <mxCell id="lftGqDo9x2T_g4nQwYOj-25" value="Event Handler" style="swimlane;fontStyle=0;childLayout=stackLayout;horizontal=1;startSize=26;fillColor=none;horizontalStack=0;resizeParent=1;resizeParentMax=0;resizeLast=0;collapsible=1;marginBottom=0;whiteSpace=wrap;html=1;hachureGap=4;fontFamily=Helvetica;swimlaneLine=1;rounded=1;" vertex="1" parent="1">
          <mxGeometry x="745" y="390" width="140" height="130" as="geometry" />
        </mxCell>
        <mxCell id="lftGqDo9x2T_g4nQwYOj-26" value="+ Init()" style="text;strokeColor=none;fillColor=none;align=left;verticalAlign=top;spacingLeft=4;spacingRight=4;overflow=hidden;rotatable=0;points=[[0,0.5],[1,0.5]];portConstraint=eastwest;whiteSpace=wrap;html=1;fontFamily=Helvetica;swimlaneLine=1;rounded=1;" vertex="1" parent="lftGqDo9x2T_g4nQwYOj-25">
          <mxGeometry y="26" width="140" height="26" as="geometry" />
        </mxCell>
        <mxCell id="lftGqDo9x2T_g4nQwYOj-27" value="+ Shutdown()" style="text;strokeColor=none;fillColor=none;align=left;verticalAlign=top;spacingLeft=4;spacingRight=4;overflow=hidden;rotatable=0;points=[[0,0.5],[1,0.5]];portConstraint=eastwest;whiteSpace=wrap;html=1;fontFamily=Helvetica;swimlaneLine=1;rounded=1;" vertex="1" parent="lftGqDo9x2T_g4nQwYOj-25">
          <mxGeometry y="52" width="140" height="26" as="geometry" />
        </mxCell>
        <mxCell id="lftGqDo9x2T_g4nQwYOj-29" value="+ Run()" style="text;strokeColor=none;fillColor=none;align=left;verticalAlign=top;spacingLeft=4;spacingRight=4;overflow=hidden;rotatable=0;points=[[0,0.5],[1,0.5]];portConstraint=eastwest;whiteSpace=wrap;html=1;fontFamily=Helvetica;rounded=1;swimlaneLine=1;" vertex="1" parent="lftGqDo9x2T_g4nQwYOj-25">
          <mxGeometry y="78" width="140" height="26" as="geometry" />
        </mxCell>
        <mxCell id="lftGqDo9x2T_g4nQwYOj-30" value="- SubmitEvent()" style="text;strokeColor=none;fillColor=none;align=left;verticalAlign=top;spacingLeft=4;spacingRight=4;overflow=hidden;rotatable=0;points=[[0,0.5],[1,0.5]];portConstraint=eastwest;whiteSpace=wrap;html=1;fontFamily=Helvetica;rounded=1;swimlaneLine=1;" vertex="1" parent="lftGqDo9x2T_g4nQwYOj-25">
          <mxGeometry y="104" width="140" height="26" as="geometry" />
        </mxCell>
        <mxCell id="lftGqDo9x2T_g4nQwYOj-32" value="&lt;p style=&quot;margin:0px;margin-top:4px;text-align:center;text-decoration:underline;&quot;&gt;&lt;b&gt;GlobalData:Struct&lt;/b&gt;&lt;/p&gt;&lt;hr size=&quot;1&quot; style=&quot;border-style:solid;&quot;&gt;&lt;p style=&quot;margin:0px;margin-left:8px;&quot;&gt;EventQueue (Per Module Type?)&lt;br&gt;EventFunctionsList&lt;br&gt;GUI Data&lt;/p&gt;" style="verticalAlign=top;align=left;overflow=fill;html=1;whiteSpace=wrap;rounded=1;" vertex="1" parent="1">
          <mxGeometry x="270" y="410" width="190" height="90" as="geometry" />
        </mxCell>
      </root>
    </mxGraphModel>
  </diagram>
</mxfile>
